<svg version="1" xmlns="http://www.w3.org/2000/svg" width="669.333" height="669.333" viewBox="0 0 502.000000 502.000000"><path d="M159.5 30.7c0 17-.3 32.6-.8 34.8-1.1 5.7-7.1 21.4-11.3 29.8-5.8 11.4-11 18.3-21.1 28.1-29.5 28.3-46.5 61.5-52.8 103.1-1.2 8.4-1.4 40-.2 45 .3 1.1.8 4.2 1.1 7 2.5 18.2 11.5 42.7 22.7 61.1 9.3 15.5 19.3 27.4 35.3 41.8 7.9 7.2 9.2 8.9 13.6 18 6 12.4 11.5 28.3 12.7 36.2.4 3.2.8 19.5.8 36.2l-.1 30.2 87.6-.2 87.5-.3.1-32c.1-35.4 0-34.9 7-51.2 8.5-19.8 16.9-32.9 29.5-45.8 18.9-19.3 32.4-40.7 40.9-64.8 3.2-9.3 7-23.5 7-26.6 0-2.2 2.7-4.1 4.7-3.4 3.6 1.3 6.3-13 5.9-31.7-.4-17-2.6-25.3-6.5-24.9-3.4.3-4.1-.2-4.1-2.9 0-1.5-.5-4.4-1.1-6.6-.6-2.1-1.3-4.7-1.5-5.7-.2-1.1-.6-2.7-.8-3.7-1.3-5.5-7.2-20.7-11.6-29.7-7.8-15.9-19.4-32.4-33.3-47.2-6.7-7.1-16.7-19.8-16.7-21.2 0-.5-.4-1.1-.8-1.3-2.1-.8-13-21.9-16.5-32-2.1-6-2.2-7.8-2.1-38.6V0H159.4l.1 30.7z"/></svg>