<?xml version="1.0" encoding="UTF-8" standalone="no"?>
<!-- Created with Inkscape (http://www.inkscape.org/) -->

<svg
   xmlns:dc="http://purl.org/dc/elements/1.1/"
   xmlns:cc="http://creativecommons.org/ns#"
   xmlns:rdf="http://www.w3.org/1999/02/22-rdf-syntax-ns#"
   xmlns:svg="http://www.w3.org/2000/svg"
   xmlns="http://www.w3.org/2000/svg"
   xmlns:sodipodi="http://sodipodi.sourceforge.net/DTD/sodipodi-0.dtd"
   xmlns:inkscape="http://www.inkscape.org/namespaces/inkscape"
   width="670"
   height="230"
   viewBox="0 0 177.27083 60.854171"
   version="1.1"
   id="svg5319"
   inkscape:version="0.92.3 (2405546, 2018-03-11)"
   sodipodi:docname="quantify-wordwhite.svg"
   inkscape:export-filename="C:\Users\jared\Downloads\quantify-wordwhite.png"
   inkscape:export-xdpi="96"
   inkscape:export-ydpi="96">
  <defs
     id="defs5313" />
  <sodipodi:namedview
     id="base"
     pagecolor="#ffffff"
     bordercolor="#666666"
     borderopacity="1.0"
     inkscape:pageopacity="0.0"
     inkscape:pageshadow="2"
     inkscape:zoom="0.98994948"
     inkscape:cx="331.49655"
     inkscape:cy="90.858357"
     inkscape:document-units="mm"
     inkscape:current-layer="layer1"
     showgrid="false"
     units="px"
     inkscape:window-width="1366"
     inkscape:window-height="745"
     inkscape:window-x="-8"
     inkscape:window-y="-8"
     inkscape:window-maximized="1" />
  <metadata
     id="metadata5316">
    <rdf:RDF>
      <cc:Work
         rdf:about="">
        <dc:format>image/svg+xml</dc:format>
        <dc:type
           rdf:resource="http://purl.org/dc/dcmitype/StillImage" />
        <dc:title></dc:title>
      </cc:Work>
    </rdf:RDF>
  </metadata>
  <g
     inkscape:label="Layer 1"
     inkscape:groupmode="layer"
     id="layer1"
     transform="translate(-9.3436156,-225.87461)">
    <path
       id="text5323"
       style="font-style:normal;font-variant:normal;font-weight:normal;font-stretch:normal;font-size:10.58333302px;line-height:1.25;font-family:Mooka;-inkscape-font-specification:Mooka;letter-spacing:0px;word-spacing:0px;fill:#ffffff;fill-opacity:1;stroke:none;stroke-width:0.26458332"
       d="m 27.862383,234.76246 c -9.804401,0 -17.729151,7.97539 -17.729151,17.77979 0,9.8044 7.92475,17.72967 17.729151,17.72967 4.4196,0 8.483438,-1.57504 11.582238,-4.26744 l 3.860745,3.91139 c 0.3048,0.254 0.609716,0.35605 0.965316,0.35605 0.3556,0 0.711317,-0.10205 0.965317,-0.35605 0.5588,-0.5588 0.5588,-1.42212 0,-1.93012 l -3.860747,-3.9119 c 2.6416,-3.0988 4.266922,-7.1628 4.266922,-11.5316 0,-9.8044 -7.975391,-17.77979 -17.779791,-17.77979 z m 96.332097,1.32085 c -0.7112,0 -1.2702,0.60965 -1.2702,1.32085 v 12.7 h -2.08257 c -0.7112,0 -1.2702,0.60965 -1.2702,1.32085 0,0.762 0.559,1.32085 1.2702,1.32085 h 2.08257 v 7.46724 c 0,5.5372 4.5211,10.05882 10.0583,10.05882 0.7112,0 1.32085,-0.55885 1.32085,-1.32085 0,-0.7112 -0.60965,-1.27021 -1.32085,-1.27021 -4.1148,0 -7.46777,-3.35296 -7.46777,-7.46776 v -7.46724 h 7.46777 c 0.7112,0 1.32085,-0.55885 1.32085,-1.32085 0,-0.7112 -0.60965,-1.32085 -1.32085,-1.32085 h -7.46777 v -12.7 c 0,-0.7112 -0.55833,-1.32085 -1.32033,-1.32085 z m 35.08106,0 c -5.5372,0 -10.0583,4.5211 -10.0583,10.0583 v 3.96255 h -2.08256 c -0.7112,0 -1.2702,0.60965 -1.2702,1.32085 0,0.762 0.559,1.32085 1.2702,1.32085 h 2.08256 v 16.20521 c 0,0.762 0.55901,1.32085 1.27021,1.32085 0.762,0 1.32033,-0.55885 1.32033,-1.32085 v -16.20521 h 7.46776 c 0.7112,0 1.32085,-0.55885 1.32085,-1.32085 0,-0.7112 -0.60965,-1.32085 -1.32085,-1.32085 h -7.46776 v -3.96255 c 0,-4.064 3.35296,-7.4166 7.46776,-7.4166 0.7112,0 1.32085,-0.60965 1.32085,-1.32085 0,-0.7112 -0.60965,-1.32085 -1.32085,-1.32085 z M 27.862383,237.4548 c 8.3312,0 15.036808,6.75625 15.036808,15.08745 0,3.6576 -1.27017,7.01068 -3.45457,9.60148 l -3.301608,-3.30212 c -0.5588,-0.508 -1.42263,-0.508 -1.93063,0 -0.5588,0.5588 -0.5588,1.42263 0,1.93063 l 3.302122,3.30161 c -2.6416,2.1844 -5.994522,3.50521 -9.652122,3.50521 -8.280401,0 -15.036809,-6.75641 -15.036809,-15.03681 0,-8.3312 6.756408,-15.08745 15.036809,-15.08745 z m 112.823077,6.04511 c -0.7112,0 -1.2702,0.55901 -1.2702,1.27021 v 0.0506 c 0,0.7112 0.559,1.32085 1.2702,1.32085 0.762,0 1.32034,-0.60965 1.32034,-1.32085 v -0.0506 c 0,-0.7112 -0.55834,-1.27021 -1.32034,-1.27021 z m -89.89218,6.60425 c -0.7112,0 -1.270206,0.60965 -1.270206,1.32085 v 8.78809 c 0,5.5372 4.470302,10.05882 10.058302,10.05882 2.9464,0 5.588161,-1.27012 7.467761,-3.30212 v 1.98127 c 0,0.762 0.558491,1.32085 1.269691,1.32085 0.762,0 1.320847,-0.55885 1.320847,-1.32085 v -17.52606 c 0,-0.7112 -0.558847,-1.32085 -1.320847,-1.32085 -0.7112,0 -1.269691,0.60965 -1.269691,1.32085 v 8.78809 c 0,4.1148 -3.352961,7.46776 -7.467761,7.46776 -4.1148,0 -7.467761,-3.35296 -7.467761,-7.46776 v -8.78809 c 0,-0.7112 -0.558335,-1.32085 -1.320335,-1.32085 z m 32.799033,0 c -5.588,0 -10.058302,4.52094 -10.058302,10.10894 0,5.5372 4.470302,10.05882 10.058302,10.05882 2.9464,0 5.588162,-1.27012 7.467762,-3.30212 v 1.98127 c 0,0.762 0.55849,1.32085 1.26969,1.32085 0.762,0 1.320848,-0.55885 1.320848,-1.32085 v -17.52606 c 0,-0.7112 -0.558848,-1.32085 -1.320848,-1.32085 -0.7112,0 -1.26969,0.60965 -1.26969,1.32085 v 2.03192 c -1.8796,-2.032 -4.521362,-3.35277 -7.467762,-3.35277 z m 57.093147,0 c -0.7112,0 -1.2702,0.60965 -1.2702,1.32085 v 17.77979 c 0,0.7112 0.559,1.32085 1.2702,1.32085 0.762,0 1.32034,-0.60965 1.32034,-1.32085 v -17.77979 c 0,-0.7112 -0.55834,-1.32085 -1.32034,-1.32085 z m 26.29297,0 c -0.7112,0 -1.2702,0.60965 -1.2702,1.32085 v 8.78809 c 0,5.5372 4.4703,10.05882 10.0583,10.05882 2.9464,0 5.58816,-1.27012 7.46776,-3.30212 v 7.11171 c 0,4.1148 -3.35296,7.46776 -7.46776,7.46776 -4.1148,0 -7.46776,-3.35296 -7.46776,-7.46776 0,-0.7112 -0.55834,-1.26969 -1.32034,-1.26969 -0.7112,0 -1.2702,0.55849 -1.2702,1.26969 0,5.588 4.4703,10.10946 10.0583,10.10946 5.5372,0 10.0583,-4.52146 10.0583,-10.10946 v -22.6565 c 0,-0.7112 -0.55885,-1.32085 -1.32085,-1.32085 -0.7112,0 -1.26969,0.60965 -1.26969,1.32085 v 8.78809 c 0,4.1148 -3.35296,7.46776 -7.46776,7.46776 -4.1148,0 -7.46776,-3.35296 -7.46776,-7.46776 v -8.78809 c 0,-0.7112 -0.55834,-1.32085 -1.32034,-1.32085 z m -66.87343,0.0506 c -0.711201,0 -1.270208,0.55901 -1.270208,1.27021 v 17.52606 c 0,0.762 0.559007,1.32085 1.270208,1.32085 0.762,0 1.32033,-0.55885 1.32033,-1.32085 v -8.73797 c 0,-4.1148 3.35296,-7.46724 7.46776,-7.46724 4.1148,0 7.46776,3.35244 7.46776,7.46724 v 8.73797 c 0,0.762 0.55849,1.32085 1.26969,1.32085 0.762,0 1.32085,-0.55885 1.32085,-1.32085 v -8.73797 c 0,-5.5372 -4.5211,-10.0583 -10.0583,-10.0583 -2.9464,0 -5.63896,1.27013 -7.46776,3.30213 v -2.03192 c 0,-0.7112 -0.55833,-1.27021 -1.32033,-1.27021 z m -16.512687,2.59106 c 4.1148,0 7.467762,3.35244 7.467762,7.46724 0,4.1148 -3.352962,7.46776 -7.467762,7.46776 -4.1148,0 -7.467761,-3.35296 -7.467761,-7.46776 0,-4.1148 3.352961,-7.46724 7.467761,-7.46724 z"
       inkscape:connector-curvature="0" />
    <path
       style="fill:none;stroke:#ffffff;stroke-width:1.5;stroke-linecap:butt;stroke-linejoin:miter;stroke-miterlimit:4;stroke-dasharray:none;stroke-opacity:1"
       d="m 28.779452,230.52243 c 7.6864,-0.47657 18.595505,3.46299 20.83108,13.94872"
       id="path5437-6"
       inkscape:connector-curvature="0"
       sodipodi:nodetypes="cc" />
    <path
       style="fill:none;stroke:#ffffff;stroke-width:1.39051843;stroke-linecap:butt;stroke-linejoin:miter;stroke-miterlimit:4;stroke-dasharray:none;stroke-opacity:1"
       d="m 29.462924,233.61717 c 7.087396,-0.89217 15.626299,5.69894 16.271039,11.60868"
       id="path5997"
       inkscape:connector-curvature="0"
       sodipodi:nodetypes="cc" />
  </g>
</svg>
