<?xml version="1.0" encoding="UTF-8" standalone="no"?>
<!-- Created with Inkscape (http://www.inkscape.org/) -->

<svg
   xmlns:dc="http://purl.org/dc/elements/1.1/"
   xmlns:cc="http://creativecommons.org/ns#"
   xmlns:rdf="http://www.w3.org/1999/02/22-rdf-syntax-ns#"
   xmlns:svg="http://www.w3.org/2000/svg"
   xmlns="http://www.w3.org/2000/svg"
   xmlns:sodipodi="http://sodipodi.sourceforge.net/DTD/sodipodi-0.dtd"
   xmlns:inkscape="http://www.inkscape.org/namespaces/inkscape"
   width="664.03125"
   height="225.72557"
   viewBox="0 0 175.6916 59.723228"
   version="1.1"
   id="svg5319"
   inkscape:version="0.92.4 (5da689c313, 2019-01-14)"
   sodipodi:docname="quantify-wordblack.svg">
  <defs
     id="defs5313" />
  <sodipodi:namedview
     id="base"
     pagecolor="#ffffff"
     bordercolor="#666666"
     borderopacity="1.0"
     inkscape:pageopacity="0.0"
     inkscape:pageshadow="2"
     inkscape:zoom="1.4"
     inkscape:cx="400.70004"
     inkscape:cy="24.553625"
     inkscape:document-units="mm"
     inkscape:current-layer="layer1"
     showgrid="false"
     units="px"
     inkscape:window-width="1920"
     inkscape:window-height="1017"
     inkscape:window-x="1912"
     inkscape:window-y="-8"
     inkscape:window-maximized="1" />
  <metadata
     id="metadata5316">
    <rdf:RDF>
      <cc:Work
         rdf:about="">
        <dc:format>image/svg+xml</dc:format>
        <dc:type
           rdf:resource="http://purl.org/dc/dcmitype/StillImage" />
        <dc:title></dc:title>
      </cc:Work>
    </rdf:RDF>
  </metadata>
  <g
     inkscape:label="Layer 1"
     inkscape:groupmode="layer"
     id="layer1"
     transform="translate(-9.3436156,-227.00555)">
    <path
       id="text5323"
       style="font-style:normal;font-variant:normal;font-weight:normal;font-stretch:normal;font-size:10.58333302px;line-height:1.25;font-family:Mooka;-inkscape-font-specification:Mooka;letter-spacing:0px;word-spacing:0px;fill:#000000;fill-opacity:1;stroke:none;stroke-width:0.99999994"
       d="m 102.32227,174.36328 c -37.056004,0 -67.007817,30.14322 -67.007817,67.19922 0,37.056 29.951813,67.00977 67.007817,67.00977 16.704,0 32.06339,-5.95291 43.77539,-16.12891 l 14.59179,14.7832 c 1.152,0.96 2.30444,1.34571 3.64844,1.34571 1.344,0 2.68844,-0.38571 3.64844,-1.34571 2.112,-2.112 2.112,-5.37492 0,-7.29492 l -14.5918,-14.78516 c 9.984,-11.712 16.12695,-27.07198 16.12695,-43.58398 0,-37.056 -30.14321,-67.19922 -67.19921,-67.19922 z m 364.08984,4.99219 c -2.688,0 -4.80078,2.30419 -4.80078,4.99219 v 48 h -7.8711 c -2.688,0 -4.80078,2.30418 -4.80078,4.99218 0,2.88 2.11278,4.99219 4.80078,4.99219 h 7.8711 v 28.22266 c 0,20.928 17.08762,38.01758 38.01562,38.01758 2.688,0 4.99219,-2.11219 4.99219,-4.99219 0,-2.688 -2.30419,-4.80078 -4.99219,-4.80078 -15.552,0 -28.22461,-12.67261 -28.22461,-28.22461 v -28.22266 h 28.22461 c 2.688,0 4.99219,-2.11219 4.99219,-4.99219 0,-2.688 -2.30419,-4.99218 -4.99219,-4.99218 h -28.22461 v -48 c 0,-2.688 -2.11023,-4.99219 -4.99023,-4.99219 z m 132.58984,0 c -20.928,0 -38.01562,17.08762 -38.01562,38.01562 v 14.97657 h -7.8711 c -2.688,0 -4.80078,2.30418 -4.80078,4.99218 0,2.88 2.11278,4.99219 4.80078,4.99219 h 7.8711 v 61.24805 c 0,2.88 2.11278,4.99219 4.80078,4.99219 2.88,0 4.99023,-2.11219 4.99023,-4.99219 v -61.24805 h 28.22461 c 2.688,0 4.99219,-2.11219 4.99219,-4.99219 0,-2.688 -2.30419,-4.99218 -4.99219,-4.99218 h -28.22461 v -14.97657 c 0,-15.36 12.67261,-28.03125 28.22461,-28.03125 2.688,0 4.99219,-2.30418 4.99219,-4.99218 0,-2.688 -2.30419,-4.99219 -4.99219,-4.99219 z m -496.67968,5.18359 c 31.488,0 56.83203,25.53544 56.83203,57.02344 0,13.824 -4.80064,26.49706 -13.05664,36.28906 l -12.47852,-12.48047 c -2.112,-1.92 -5.37687,-1.92 -7.29687,0 -2.112,2.112 -2.112,5.37688 0,7.29688 l 12.48046,12.47851 c -9.984,8.256 -22.65646,13.24805 -36.48046,13.24805 -31.296004,0 -56.832036,-25.53603 -56.832036,-56.83203 0,-31.488 25.536032,-57.02344 56.832036,-57.02344 z m 426.41796,22.84766 c -2.688,0 -4.80078,2.11278 -4.80078,4.80078 v 0.19141 c 0,2.688 2.11278,4.99218 4.80078,4.99218 2.88,0 4.99024,-2.30418 4.99024,-4.99218 v -0.19141 c 0,-2.688 -2.11024,-4.80078 -4.99024,-4.80078 z m -339.75,24.96094 c -2.688,0 -4.80078,2.30418 -4.80078,4.99218 v 33.21485 c 0,20.928 16.89563,38.01758 38.01563,38.01758 11.136,0 21.12061,-4.80047 28.22461,-12.48047 v 7.48828 c 0,2.88 2.11083,4.99219 4.79883,4.99219 2.88,0 4.99218,-2.11219 4.99218,-4.99219 v -66.24024 c 0,-2.688 -2.11218,-4.99218 -4.99218,-4.99218 -2.688,0 -4.79883,2.30418 -4.79883,4.99218 v 33.21485 c 0,15.552 -12.67261,28.22461 -28.22461,28.22461 -15.552,0 -28.22461,-12.67261 -28.22461,-28.22461 v -33.21485 c 0,-2.688 -2.11024,-4.99218 -4.99024,-4.99218 z m 123.96485,0 c -21.12,0 -38.01563,17.08703 -38.01563,38.20703 0,20.928 16.89563,38.01758 38.01563,38.01758 11.136,0 21.12061,-4.80047 28.22461,-12.48047 v 7.48828 c 0,2.88 2.11083,4.99219 4.79883,4.99219 2.88,0 4.99218,-2.11219 4.99218,-4.99219 v -66.24024 c 0,-2.688 -2.11218,-4.99218 -4.99218,-4.99218 -2.688,0 -4.79883,2.30418 -4.79883,4.99218 v 7.67969 c -7.104,-7.68 -17.08861,-12.67187 -28.22461,-12.67187 z m 215.78515,0 c -2.688,0 -4.80078,2.30418 -4.80078,4.99218 v 67.19922 c 0,2.688 2.11278,4.99219 4.80078,4.99219 2.88,0 4.99024,-2.30419 4.99024,-4.99219 v -67.19922 c 0,-2.688 -2.11024,-4.99218 -4.99024,-4.99218 z m 99.375,0 c -2.688,0 -4.80078,2.30418 -4.80078,4.99218 v 33.21485 c 0,20.928 16.89563,38.01758 38.01563,38.01758 11.136,0 21.12061,-4.80047 28.22461,-12.48047 v 26.8789 c 0,15.552 -12.67261,28.22461 -28.22461,28.22461 -15.552,0 -28.22461,-12.67261 -28.22461,-28.22461 0,-2.688 -2.11024,-4.79882 -4.99024,-4.79882 -2.688,0 -4.80078,2.11082 -4.80078,4.79882 0,21.12 16.89563,38.20899 38.01563,38.20899 20.928,0 38.01562,-17.08899 38.01562,-38.20899 v -85.63086 c 0,-2.688 -2.11218,-4.99218 -4.99218,-4.99218 -2.688,0 -4.79883,2.30418 -4.79883,4.99218 v 33.21485 c 0,15.552 -12.67261,28.22461 -28.22461,28.22461 -15.552,0 -28.22461,-12.67261 -28.22461,-28.22461 v -33.21485 c 0,-2.688 -2.11024,-4.99218 -4.99024,-4.99218 z m -252.75,0.1914 c -2.688,0 -4.80078,2.11278 -4.80078,4.80078 v 66.24024 c 0,2.88 2.11278,4.99219 4.80078,4.99219 2.88,0 4.99024,-2.11219 4.99024,-4.99219 v -33.02539 c 0,-15.552 12.67261,-28.22266 28.22461,-28.22266 15.552,0 28.22461,12.67066 28.22461,28.22266 v 33.02539 c 0,2.88 2.11083,4.99219 4.79883,4.99219 2.88,0 4.99218,-2.11219 4.99218,-4.99219 v -33.02539 c 0,-20.928 -17.08762,-38.01563 -38.01562,-38.01563 -11.136,0 -21.31261,4.80047 -28.22461,12.48047 v -7.67969 c 0,-2.688 -2.11024,-4.80078 -4.99024,-4.80078 z m -62.41015,9.79297 c 15.552,0 28.22461,12.67066 28.22461,28.22266 0,15.552 -12.67261,28.22461 -28.22461,28.22461 -15.552,0 -28.22461,-12.67261 -28.22461,-28.22461 0,-15.552 12.67261,-28.22266 28.22461,-28.22266 z"
       inkscape:connector-curvature="0"
       transform="matrix(0.26458333,0,0,0.26458333,0,191.16665)" />
    <path
       style="fill:none;stroke:#000000;stroke-width:1.5;stroke-linecap:round;stroke-linejoin:miter;stroke-miterlimit:4;stroke-dasharray:none;stroke-opacity:1"
       d="m 28.537173,231.99216 c 7.6864,-0.47657 17.066878,5.11762 20.700395,15.13423"
       id="path5437-6"
       inkscape:connector-curvature="0"
       sodipodi:nodetypes="cc" />
    <path
       style="fill:none;stroke:#000000;stroke-width:1.33761621;stroke-linecap:round;stroke-linejoin:round;stroke-miterlimit:4;stroke-dasharray:none;stroke-opacity:1"
       d="m 29.504881,234.87383 c 5.874393,-0.21867 13.905137,4.8663 16.59954,12.43744"
       id="path5997"
       inkscape:connector-curvature="0"
       sodipodi:nodetypes="cc" />
    <path
       sodipodi:nodetypes="cc"
       inkscape:connector-curvature="0"
       id="path815"
       d="m 29.504881,234.87383 c 5.874393,-0.21867 13.905137,4.8663 16.59954,12.43744"
       style="fill:none;stroke:#000000;stroke-width:1.33761621;stroke-linecap:round;stroke-linejoin:round;stroke-miterlimit:4;stroke-dasharray:none;stroke-opacity:1" />
  </g>
</svg>
