<?xml version="1.0" encoding="UTF-8" standalone="no"?>
<!-- Created with Inkscape (http://www.inkscape.org/) -->

<svg
   xmlns:dc="http://purl.org/dc/elements/1.1/"
   xmlns:cc="http://creativecommons.org/ns#"
   xmlns:rdf="http://www.w3.org/1999/02/22-rdf-syntax-ns#"
   xmlns:svg="http://www.w3.org/2000/svg"
   xmlns="http://www.w3.org/2000/svg"
   xmlns:sodipodi="http://sodipodi.sourceforge.net/DTD/sodipodi-0.dtd"
   xmlns:inkscape="http://www.inkscape.org/namespaces/inkscape"
   width="500"
   height="500"
   viewBox="0 0 132.29166 132.29167"
   version="1.1"
   id="svg3723"
   inkscape:version="0.92.3 (2405546, 2018-03-11)"
   sodipodi:docname="quantifyblack.svg"
   inkscape:export-filename="C:\Users\jared\Downloads\quantify.png"
   inkscape:export-xdpi="96"
   inkscape:export-ydpi="96">
  <defs
     id="defs3717" />
  <sodipodi:namedview
     id="base"
     pagecolor="#ffffff"
     bordercolor="#666666"
     borderopacity="1.0"
     inkscape:pageopacity="0"
     inkscape:pageshadow="2"
     inkscape:zoom="1.3854167"
     inkscape:cx="123.27713"
     inkscape:cy="219.92153"
     inkscape:document-units="px"
     inkscape:current-layer="layer1"
     showgrid="false"
     units="px"
     inkscape:measure-start="0,0"
     inkscape:measure-end="0,0"
     inkscape:window-width="1680"
     inkscape:window-height="1021"
     inkscape:window-x="-9"
     inkscape:window-y="-9"
     inkscape:window-maximized="1" />
  <metadata
     id="metadata3720">
    <rdf:RDF>
      <cc:Work
         rdf:about="">
        <dc:format>image/svg+xml</dc:format>
        <dc:type
           rdf:resource="http://purl.org/dc/dcmitype/StillImage" />
        <dc:title></dc:title>
      </cc:Work>
    </rdf:RDF>
  </metadata>
  <g
     inkscape:label="Layer 1"
     inkscape:groupmode="layer"
     id="layer1"
     transform="translate(0,-164.70831)">
    <g
       id="g3744"
       transform="matrix(0.75197392,0,0,0.72850324,16.129756,62.458456)">
      <rect
         style="stroke-width:0.26458332"
         y="223.68365"
         x="111.59226"
         height="14.938631"
         width="1.5145156"
         id="rect3731" />
      <ellipse
         style="stroke-width:0.26458332"
         ry="7.4348941"
         rx="1.4800934"
         cy="231.11855"
         cx="113.07235"
         id="path3736" />
    </g>
    <g
       id="g841"
       transform="translate(0.40742918,2.0052579)">
      <ellipse
         ry="33.731216"
         rx="34.817959"
         style="stroke-width:0.19749281"
         cy="228.57062"
         cx="65.738403"
         id="path3725" />
      <rect
         style="stroke-width:0.20339355"
         y="180.42265"
         x="48.313213"
         height="96.852463"
         width="34.850376"
         id="rect3729" />
      <path
         sodipodi:nodetypes="cc"
         inkscape:connector-curvature="0"
         id="path4715"
         d="m 39.4069,209.42027 c 3.704246,-3.30146 10.409417,-9.63065 11.632413,-22.39956"
         style="fill:none;stroke:#000000;stroke-width:3.32911301;stroke-linecap:butt;stroke-linejoin:miter;stroke-miterlimit:4;stroke-dasharray:none;stroke-opacity:1" />
      <path
         sodipodi:nodetypes="cc"
         inkscape:connector-curvature="0"
         id="path4715-9"
         d="M 90.357862,207.02426 C 86.921939,203.59095 80.702477,197.009 79.568064,183.73013"
         style="fill:none;stroke:#000000;stroke-width:3.26966834;stroke-linecap:butt;stroke-linejoin:miter;stroke-miterlimit:4;stroke-dasharray:none;stroke-opacity:1" />
      <path
         sodipodi:nodetypes="cc"
         inkscape:connector-curvature="0"
         id="path4715-1"
         d="m 39.584149,246.86503 c 3.590485,3.42808 10.089736,10.00001 11.275173,23.25864"
         style="fill:none;stroke:#000000;stroke-width:3.33985472;stroke-linecap:butt;stroke-linejoin:miter;stroke-miterlimit:4;stroke-dasharray:none;stroke-opacity:1" />
      <path
         sodipodi:nodetypes="cc"
         inkscape:connector-curvature="0"
         id="path4715-9-0"
         d="m 90.275252,249.61849 c -3.388515,3.65429 -9.522151,10.6599 -10.640911,24.79346"
         style="fill:none;stroke:#000000;stroke-width:3.34989977;stroke-linecap:butt;stroke-linejoin:miter;stroke-miterlimit:4;stroke-dasharray:none;stroke-opacity:1" />
    </g>
    <g
       id="g849"
       transform="translate(0.40742918,2.2835248)">
      <ellipse
         ry="28.912472"
         rx="29.843966"
         cy="228.57062"
         cx="65.738403"
         id="path3740"
         style="fill:#333333;stroke-width:0.19040467" />
      <flowRoot
         transform="matrix(0.19895976,0,0,0.19274982,8.4424847,168.12347)"
         style="font-style:normal;font-variant:normal;font-weight:normal;font-stretch:normal;font-size:40px;line-height:1.25;font-family:Mooka;-inkscape-font-specification:Mooka;letter-spacing:0px;word-spacing:0px;fill:#000000;fill-opacity:1;stroke:none"
         id="flowRoot21"
         xml:space="preserve"><flowRegion
           id="flowRegion23"><rect
             y="202.61655"
             x="196.33083"
             height="259.12781"
             width="280.78195"
             id="rect25" /></flowRegion><flowPara
           style="font-size:229.33332825px;fill:#ffffff"
           id="flowPara27">Q</flowPara></flowRoot>      <path
         inkscape:connector-curvature="0"
         d="m 66.420019,201.69707 c -0.958801,-0.0265 -1.640647,0.66286 -1.522358,1.54048 0.0522,0.3884 0.250809,0.74797 0.541783,1.03126 0.365233,0.35559 0.872746,0.58918 1.406728,0.60411 6.188747,0.17041 12.340498,2.80121 16.876131,7.21721 4.535634,4.41598 6.95496,10.13024 6.638114,15.67545 -0.02711,0.47858 0.191055,0.95144 0.556334,1.30708 0.29102,0.28335 0.674203,0.49187 1.102332,0.56968 0.963956,0.17737 1.786555,-0.37608 1.834794,-1.23463 0.370768,-6.4683 -2.453556,-13.13386 -7.746954,-18.28763 -5.293395,-5.15375 -12.467899,-8.22375 -19.686904,-8.42301 z m 0.857284,6.34649 c -0.958753,-0.0265 -1.640645,0.66286 -1.522357,1.54047 0.0522,0.3884 0.251531,0.74872 0.542548,1.03206 0.365233,0.3556 0.872806,0.58919 1.405963,0.60331 4.125782,0.1131 8.226874,1.86707 11.250371,4.81081 3.023494,2.94374 4.636431,6.75308 4.425026,10.4511 -0.02792,0.47925 0.190826,0.95112 0.555186,1.30589 0.291023,0.28335 0.674156,0.49222 1.102331,0.57007 0.965493,0.1776 1.788343,-0.37614 1.836709,-1.23462 0.26289,-4.62067 -1.753756,-9.38097 -5.535014,-13.06249 -3.78126,-3.6815 -8.905491,-5.87402 -14.060763,-6.0166 z"
         style="fill:#ffffff;stroke:#ffffff;stroke-width:0;stroke-miterlimit:4;stroke-dasharray:none;stroke-opacity:1"
         id="path4609" />
    </g>
  </g>
</svg>
