<?xml version="1.0" encoding="UTF-8" standalone="no"?>
<!DOCTYPE svg  PUBLIC '-//W3C//DTD SVG 1.1//EN'  'http://www.w3.org/Graphics/SVG/1.1/DTD/svg11.dtd'>
<svg id="Layer_1" xmlns="http://www.w3.org/2000/svg" xml:space="preserve" height="2277px" viewBox="0 0 2277 2277" width="2277px" version="1.1" y="0px" x="0px" xmlns:xlink="http://www.w3.org/1999/xlink" enable-background="new 0 0 2277 2277">
<rect y="0" x="0" height="2277" fill="#fff" width="2277"/><g transform="translate(138,138)"><g transform="translate(552) scale(.69)"><g transform="">
<rect width="100" height="100"/>
</g></g><g transform="translate(621) scale(.69)"><g transform="">
<rect width="100" height="100"/>
</g></g><g transform="translate(759) scale(.69)"><g transform="">
<rect width="100" height="100"/>
</g></g><g transform="translate(828) scale(.69)"><g transform="">
<rect width="100" height="100"/>
</g></g><g transform="translate(897) scale(.69)"><g transform="">
<rect width="100" height="100"/>
</g></g><g transform="translate(966) scale(.69)"><g transform="">
<rect width="100" height="100"/>
</g></g><g transform="translate(1035) scale(.69)"><g transform="">
<rect width="100" height="100"/>
</g></g><g transform="translate(1242) scale(.69)"><g transform="">
<rect width="100" height="100"/>
</g></g><g transform="translate(1311) scale(.69)"><g transform="">
<rect width="100" height="100"/>
</g></g><g transform="translate(1380) scale(.69)"><g transform="">
<rect width="100" height="100"/>
</g></g><g transform="translate(552 69) scale(.69)"><g transform="">
<rect width="100" height="100"/>
</g></g><g transform="translate(690 69) scale(.69)"><g transform="">
<rect width="100" height="100"/>
</g></g><g transform="translate(897 69) scale(.69)"><g transform="">
<rect width="100" height="100"/>
</g></g><g transform="translate(1104 69) scale(.69)"><g transform="">
<rect width="100" height="100"/>
</g></g><g transform="translate(1173 69) scale(.69)"><g transform="">
<rect width="100" height="100"/>
</g></g><g transform="translate(1242 69) scale(.69)"><g transform="">
<rect width="100" height="100"/>
</g></g><g transform="translate(828 138) scale(.69)"><g transform="">
<rect width="100" height="100"/>
</g></g><g transform="translate(1104 138) scale(.69)"><g transform="">
<rect width="100" height="100"/>
</g></g><g transform="translate(1380 138) scale(.69)"><g transform="">
<rect width="100" height="100"/>
</g></g><g transform="translate(552 207) scale(.69)"><g transform="">
<rect width="100" height="100"/>
</g></g><g transform="translate(621 207) scale(.69)"><g transform="">
<rect width="100" height="100"/>
</g></g><g transform="translate(759 207) scale(.69)"><g transform="">
<rect width="100" height="100"/>
</g></g><g transform="translate(966 207) scale(.69)"><g transform="">
<rect width="100" height="100"/>
</g></g><g transform="translate(1035 207) scale(.69)"><g transform="">
<rect width="100" height="100"/>
</g></g><g transform="translate(1173 207) scale(.69)"><g transform="">
<rect width="100" height="100"/>
</g></g><g transform="translate(1311 207) scale(.69)"><g transform="">
<rect width="100" height="100"/>
</g></g><g transform="translate(621 276) scale(.69)"><g transform="">
<rect width="100" height="100"/>
</g></g><g transform="translate(828 276) scale(.69)"><g transform="">
<rect width="100" height="100"/>
</g></g><g transform="translate(966 276) scale(.69)"><g transform="">
<rect width="100" height="100"/>
</g></g><g transform="translate(1104 276) scale(.69)"><g transform="">
<rect width="100" height="100"/>
</g></g><g transform="translate(1311 276) scale(.69)"><g transform="">
<rect width="100" height="100"/>
</g></g><g transform="translate(1380 276) scale(.69)"><g transform="">
<rect width="100" height="100"/>
</g></g><g transform="translate(621 345) scale(.69)"><g transform="">
<rect width="100" height="100"/>
</g></g><g transform="translate(690 345) scale(.69)"><g transform="">
<rect width="100" height="100"/>
</g></g><g transform="translate(759 345) scale(.69)"><g transform="">
<rect width="100" height="100"/>
</g></g><g transform="translate(897 345) scale(.69)"><g transform="">
<rect width="100" height="100"/>
</g></g><g transform="translate(1035 345) scale(.69)"><g transform="">
<rect width="100" height="100"/>
</g></g><g transform="translate(1104 345) scale(.69)"><g transform="">
<rect width="100" height="100"/>
</g></g><g transform="translate(1173 345) scale(.69)"><g transform="">
<rect width="100" height="100"/>
</g></g><g transform="translate(1242 345) scale(.69)"><g transform="">
<rect width="100" height="100"/>
</g></g><g transform="translate(1311 345) scale(.69)"><g transform="">
<rect width="100" height="100"/>
</g></g><g transform="translate(1380 345) scale(.69)"><g transform="">
<rect width="100" height="100"/>
</g></g><g transform="translate(552 414) scale(.69)"><g transform="">
<rect width="100" height="100"/>
</g></g><g transform="translate(690 414) scale(.69)"><g transform="">
<rect width="100" height="100"/>
</g></g><g transform="translate(828 414) scale(.69)"><g transform="">
<rect width="100" height="100"/>
</g></g><g transform="translate(966 414) scale(.69)"><g transform="">
<rect width="100" height="100"/>
</g></g><g transform="translate(1104 414) scale(.69)"><g transform="">
<rect width="100" height="100"/>
</g></g><g transform="translate(1242 414) scale(.69)"><g transform="">
<rect width="100" height="100"/>
</g></g><g transform="translate(1380 414) scale(.69)"><g transform="">
<rect width="100" height="100"/>
</g></g><g transform="translate(552 483) scale(.69)"><g transform="">
<rect width="100" height="100"/>
</g></g><g transform="translate(759 483) scale(.69)"><g transform="">
<rect width="100" height="100"/>
</g></g><g transform="translate(1035 483) scale(.69)"><g transform="">
<rect width="100" height="100"/>
</g></g><g transform="translate(1104 483) scale(.69)"><g transform="">
<rect width="100" height="100"/>
</g></g><g transform="translate(1173 483) scale(.69)"><g transform="">
<rect width="100" height="100"/>
</g></g><g transform="translate(1242 483) scale(.69)"><g transform="">
<rect width="100" height="100"/>
</g></g><g transform="translate(0 552) scale(.69)"><g transform="">
<rect width="100" height="100"/>
</g></g><g transform="translate(138 552) scale(.69)"><g transform="">
<rect width="100" height="100"/>
</g></g><g transform="translate(207 552) scale(.69)"><g transform="">
<rect width="100" height="100"/>
</g></g><g transform="translate(345 552) scale(.69)"><g transform="">
<rect width="100" height="100"/>
</g></g><g transform="translate(414 552) scale(.69)"><g transform="">
<rect width="100" height="100"/>
</g></g><g transform="translate(483 552) scale(.69)"><g transform="">
<rect width="100" height="100"/>
</g></g><g transform="translate(621 552) scale(.69)"><g transform="">
<rect width="100" height="100"/>
</g></g><g transform="translate(897 552) scale(.69)"><g transform="">
<rect width="100" height="100"/>
</g></g><g transform="translate(1035 552) scale(.69)"><g transform="">
<rect width="100" height="100"/>
</g></g><g transform="translate(1104 552) scale(.69)"><g transform="">
<rect width="100" height="100"/>
</g></g><g transform="translate(1173 552) scale(.69)"><g transform="">
<rect width="100" height="100"/>
</g></g><g transform="translate(1242 552) scale(.69)"><g transform="">
<rect width="100" height="100"/>
</g></g><g transform="translate(1518 552) scale(.69)"><g transform="">
<rect width="100" height="100"/>
</g></g><g transform="translate(1725 552) scale(.69)"><g transform="">
<rect width="100" height="100"/>
</g></g><g transform="translate(1863 552) scale(.69)"><g transform="">
<rect width="100" height="100"/>
</g></g><g transform="translate(1932 552) scale(.69)"><g transform="">
<rect width="100" height="100"/>
</g></g><g transform="translate(0 621) scale(.69)"><g transform="">
<rect width="100" height="100"/>
</g></g><g transform="translate(138 621) scale(.69)"><g transform="">
<rect width="100" height="100"/>
</g></g><g transform="translate(345 621) scale(.69)"><g transform="">
<rect width="100" height="100"/>
</g></g><g transform="translate(690 621) scale(.69)"><g transform="">
<rect width="100" height="100"/>
</g></g><g transform="translate(759 621) scale(.69)"><g transform="">
<rect width="100" height="100"/>
</g></g><g transform="translate(897 621) scale(.69)"><g transform="">
<rect width="100" height="100"/>
</g></g><g transform="translate(966 621) scale(.69)"><g transform="">
<rect width="100" height="100"/>
</g></g><g transform="translate(1035 621) scale(.69)"><g transform="">
<rect width="100" height="100"/>
</g></g><g transform="translate(1311 621) scale(.69)"><g transform="">
<rect width="100" height="100"/>
</g></g><g transform="translate(1380 621) scale(.69)"><g transform="">
<rect width="100" height="100"/>
</g></g><g transform="translate(1518 621) scale(.69)"><g transform="">
<rect width="100" height="100"/>
</g></g><g transform="translate(1656 621) scale(.69)"><g transform="">
<rect width="100" height="100"/>
</g></g><g transform="translate(1932 621) scale(.69)"><g transform="">
<rect width="100" height="100"/>
</g></g><g transform="translate(0 690) scale(.69)"><g transform="">
<rect width="100" height="100"/>
</g></g><g transform="translate(69 690) scale(.69)"><g transform="">
<rect width="100" height="100"/>
</g></g><g transform="translate(138 690) scale(.69)"><g transform="">
<rect width="100" height="100"/>
</g></g><g transform="translate(345 690) scale(.69)"><g transform="">
<rect width="100" height="100"/>
</g></g><g transform="translate(414 690) scale(.69)"><g transform="">
<rect width="100" height="100"/>
</g></g><g transform="translate(483 690) scale(.69)"><g transform="">
<rect width="100" height="100"/>
</g></g><g transform="translate(552 690) scale(.69)"><g transform="">
<rect width="100" height="100"/>
</g></g><g transform="translate(621 690) scale(.69)"><g transform="">
<rect width="100" height="100"/>
</g></g><g transform="translate(759 690) scale(.69)"><g transform="">
<rect width="100" height="100"/>
</g></g><g transform="translate(828 690) scale(.69)"><g transform="">
<rect width="100" height="100"/>
</g></g><g transform="translate(897 690) scale(.69)"><g transform="">
<rect width="100" height="100"/>
</g></g><g transform="translate(1104 690) scale(.69)"><g transform="">
<rect width="100" height="100"/>
</g></g><g transform="translate(1242 690) scale(.69)"><g transform="">
<rect width="100" height="100"/>
</g></g><g transform="translate(1587 690) scale(.69)"><g transform="">
<rect width="100" height="100"/>
</g></g><g transform="translate(1656 690) scale(.69)"><g transform="">
<rect width="100" height="100"/>
</g></g><g transform="translate(1794 690) scale(.69)"><g transform="">
<rect width="100" height="100"/>
</g></g><g transform="translate(1863 690) scale(.69)"><g transform="">
<rect width="100" height="100"/>
</g></g><g transform="translate(0 759) scale(.69)"><g transform="">
<rect width="100" height="100"/>
</g></g><g transform="translate(276 759) scale(.69)"><g transform="">
<rect width="100" height="100"/>
</g></g><g transform="translate(1242 759) scale(.69)"><g transform="">
<rect width="100" height="100"/>
</g></g><g transform="translate(1380 759) scale(.69)"><g transform="">
<rect width="100" height="100"/>
</g></g><g transform="translate(1932 759) scale(.69)"><g transform="">
<rect width="100" height="100"/>
</g></g><g transform="translate(0 828) scale(.69)"><g transform="">
<rect width="100" height="100"/>
</g></g><g transform="translate(69 828) scale(.69)"><g transform="">
<rect width="100" height="100"/>
</g></g><g transform="translate(276 828) scale(.69)"><g transform="">
<rect width="100" height="100"/>
</g></g><g transform="translate(414 828) scale(.69)"><g transform="">
<rect width="100" height="100"/>
</g></g><g transform="translate(552 828) scale(.69)"><g transform="">
<rect width="100" height="100"/>
</g></g><g transform="translate(621 828) scale(.69)"><g transform="">
<rect width="100" height="100"/>
</g></g><g transform="translate(828 828) scale(.69)"><g transform="">
<rect width="100" height="100"/>
</g></g><g transform="translate(966 828) scale(.69)"><g transform="">
<rect width="100" height="100"/>
</g></g><g transform="translate(1173 828) scale(.69)"><g transform="">
<rect width="100" height="100"/>
</g></g><g transform="translate(1311 828) scale(.69)"><g transform="">
<rect width="100" height="100"/>
</g></g><g transform="translate(1449 828) scale(.69)"><g transform="">
<rect width="100" height="100"/>
</g></g><g transform="translate(1587 828) scale(.69)"><g transform="">
<rect width="100" height="100"/>
</g></g><g transform="translate(1725 828) scale(.69)"><g transform="">
<rect width="100" height="100"/>
</g></g><g transform="translate(1794 828) scale(.69)"><g transform="">
<rect width="100" height="100"/>
</g></g><g transform="translate(0 897) scale(.69)"><g transform="">
<rect width="100" height="100"/>
</g></g><g transform="translate(69 897) scale(.69)"><g transform="">
<rect width="100" height="100"/>
</g></g><g transform="translate(207 897) scale(.69)"><g transform="">
<rect width="100" height="100"/>
</g></g><g transform="translate(552 897) scale(.69)"><g transform="">
<rect width="100" height="100"/>
</g></g><g transform="translate(690 897) scale(.69)"><g transform="">
<rect width="100" height="100"/>
</g></g><g transform="translate(759 897) scale(.69)"><g transform="">
<rect width="100" height="100"/>
</g></g><g transform="translate(828 897) scale(.69)"><g transform="">
<rect width="100" height="100"/>
</g></g><g transform="translate(966 897) scale(.69)"><g transform="">
<rect width="100" height="100"/>
</g></g><g transform="translate(1035 897) scale(.69)"><g transform="">
<rect width="100" height="100"/>
</g></g><g transform="translate(1104 897) scale(.69)"><g transform="">
<rect width="100" height="100"/>
</g></g><g transform="translate(1311 897) scale(.69)"><g transform="">
<rect width="100" height="100"/>
</g></g><g transform="translate(1449 897) scale(.69)"><g transform="">
<rect width="100" height="100"/>
</g></g><g transform="translate(1518 897) scale(.69)"><g transform="">
<rect width="100" height="100"/>
</g></g><g transform="translate(1794 897) scale(.69)"><g transform="">
<rect width="100" height="100"/>
</g></g><g transform="translate(1863 897) scale(.69)"><g transform="">
<rect width="100" height="100"/>
</g></g><g transform="translate(1932 897) scale(.69)"><g transform="">
<rect width="100" height="100"/>
</g></g><g transform="translate(0 966) scale(.69)"><g transform="">
<rect width="100" height="100"/>
</g></g><g transform="translate(138 966) scale(.69)"><g transform="">
<rect width="100" height="100"/>
</g></g><g transform="translate(207 966) scale(.69)"><g transform="">
<rect width="100" height="100"/>
</g></g><g transform="translate(276 966) scale(.69)"><g transform="">
<rect width="100" height="100"/>
</g></g><g transform="translate(414 966) scale(.69)"><g transform="">
<rect width="100" height="100"/>
</g></g><g transform="translate(552 966) scale(.69)"><g transform="">
<rect width="100" height="100"/>
</g></g><g transform="translate(759 966) scale(.69)"><g transform="">
<rect width="100" height="100"/>
</g></g><g transform="translate(828 966) scale(.69)"><g transform="">
<rect width="100" height="100"/>
</g></g><g transform="translate(897 966) scale(.69)"><g transform="">
<rect width="100" height="100"/>
</g></g><g transform="translate(1173 966) scale(.69)"><g transform="">
<rect width="100" height="100"/>
</g></g><g transform="translate(1242 966) scale(.69)"><g transform="">
<rect width="100" height="100"/>
</g></g><g transform="translate(1311 966) scale(.69)"><g transform="">
<rect width="100" height="100"/>
</g></g><g transform="translate(1380 966) scale(.69)"><g transform="">
<rect width="100" height="100"/>
</g></g><g transform="translate(1449 966) scale(.69)"><g transform="">
<rect width="100" height="100"/>
</g></g><g transform="translate(1518 966) scale(.69)"><g transform="">
<rect width="100" height="100"/>
</g></g><g transform="translate(1587 966) scale(.69)"><g transform="">
<rect width="100" height="100"/>
</g></g><g transform="translate(1794 966) scale(.69)"><g transform="">
<rect width="100" height="100"/>
</g></g><g transform="translate(1863 966) scale(.69)"><g transform="">
<rect width="100" height="100"/>
</g></g><g transform="translate(1932 966) scale(.69)"><g transform="">
<rect width="100" height="100"/>
</g></g><g transform="translate(138 1035) scale(.69)"><g transform="">
<rect width="100" height="100"/>
</g></g><g transform="translate(207 1035) scale(.69)"><g transform="">
<rect width="100" height="100"/>
</g></g><g transform="translate(552 1035) scale(.69)"><g transform="">
<rect width="100" height="100"/>
</g></g><g transform="translate(621 1035) scale(.69)"><g transform="">
<rect width="100" height="100"/>
</g></g><g transform="translate(690 1035) scale(.69)"><g transform="">
<rect width="100" height="100"/>
</g></g><g transform="translate(759 1035) scale(.69)"><g transform="">
<rect width="100" height="100"/>
</g></g><g transform="translate(966 1035) scale(.69)"><g transform="">
<rect width="100" height="100"/>
</g></g><g transform="translate(1104 1035) scale(.69)"><g transform="">
<rect width="100" height="100"/>
</g></g><g transform="translate(1242 1035) scale(.69)"><g transform="">
<rect width="100" height="100"/>
</g></g><g transform="translate(1311 1035) scale(.69)"><g transform="">
<rect width="100" height="100"/>
</g></g><g transform="translate(1449 1035) scale(.69)"><g transform="">
<rect width="100" height="100"/>
</g></g><g transform="translate(1656 1035) scale(.69)"><g transform="">
<rect width="100" height="100"/>
</g></g><g transform="translate(1863 1035) scale(.69)"><g transform="">
<rect width="100" height="100"/>
</g></g><g transform="translate(69 1104) scale(.69)"><g transform="">
<rect width="100" height="100"/>
</g></g><g transform="translate(207 1104) scale(.69)"><g transform="">
<rect width="100" height="100"/>
</g></g><g transform="translate(276 1104) scale(.69)"><g transform="">
<rect width="100" height="100"/>
</g></g><g transform="translate(345 1104) scale(.69)"><g transform="">
<rect width="100" height="100"/>
</g></g><g transform="translate(414 1104) scale(.69)"><g transform="">
<rect width="100" height="100"/>
</g></g><g transform="translate(483 1104) scale(.69)"><g transform="">
<rect width="100" height="100"/>
</g></g><g transform="translate(966 1104) scale(.69)"><g transform="">
<rect width="100" height="100"/>
</g></g><g transform="translate(1035 1104) scale(.69)"><g transform="">
<rect width="100" height="100"/>
</g></g><g transform="translate(1242 1104) scale(.69)"><g transform="">
<rect width="100" height="100"/>
</g></g><g transform="translate(1380 1104) scale(.69)"><g transform="">
<rect width="100" height="100"/>
</g></g><g transform="translate(1449 1104) scale(.69)"><g transform="">
<rect width="100" height="100"/>
</g></g><g transform="translate(1587 1104) scale(.69)"><g transform="">
<rect width="100" height="100"/>
</g></g><g transform="translate(1656 1104) scale(.69)"><g transform="">
<rect width="100" height="100"/>
</g></g><g transform="translate(1725 1104) scale(.69)"><g transform="">
<rect width="100" height="100"/>
</g></g><g transform="translate(1863 1104) scale(.69)"><g transform="">
<rect width="100" height="100"/>
</g></g><g transform="translate(69 1173) scale(.69)"><g transform="">
<rect width="100" height="100"/>
</g></g><g transform="translate(138 1173) scale(.69)"><g transform="">
<rect width="100" height="100"/>
</g></g><g transform="translate(207 1173) scale(.69)"><g transform="">
<rect width="100" height="100"/>
</g></g><g transform="translate(345 1173) scale(.69)"><g transform="">
<rect width="100" height="100"/>
</g></g><g transform="translate(759 1173) scale(.69)"><g transform="">
<rect width="100" height="100"/>
</g></g><g transform="translate(828 1173) scale(.69)"><g transform="">
<rect width="100" height="100"/>
</g></g><g transform="translate(966 1173) scale(.69)"><g transform="">
<rect width="100" height="100"/>
</g></g><g transform="translate(1035 1173) scale(.69)"><g transform="">
<rect width="100" height="100"/>
</g></g><g transform="translate(1173 1173) scale(.69)"><g transform="">
<rect width="100" height="100"/>
</g></g><g transform="translate(1380 1173) scale(.69)"><g transform="">
<rect width="100" height="100"/>
</g></g><g transform="translate(1449 1173) scale(.69)"><g transform="">
<rect width="100" height="100"/>
</g></g><g transform="translate(1587 1173) scale(.69)"><g transform="">
<rect width="100" height="100"/>
</g></g><g transform="translate(1725 1173) scale(.69)"><g transform="">
<rect width="100" height="100"/>
</g></g><g transform="translate(1794 1173) scale(.69)"><g transform="">
<rect width="100" height="100"/>
</g></g><g transform="translate(1863 1173) scale(.69)"><g transform="">
<rect width="100" height="100"/>
</g></g><g transform="translate(0 1242) scale(.69)"><g transform="">
<rect width="100" height="100"/>
</g></g><g transform="translate(138 1242) scale(.69)"><g transform="">
<rect width="100" height="100"/>
</g></g><g transform="translate(207 1242) scale(.69)"><g transform="">
<rect width="100" height="100"/>
</g></g><g transform="translate(345 1242) scale(.69)"><g transform="">
<rect width="100" height="100"/>
</g></g><g transform="translate(414 1242) scale(.69)"><g transform="">
<rect width="100" height="100"/>
</g></g><g transform="translate(483 1242) scale(.69)"><g transform="">
<rect width="100" height="100"/>
</g></g><g transform="translate(552 1242) scale(.69)"><g transform="">
<rect width="100" height="100"/>
</g></g><g transform="translate(759 1242) scale(.69)"><g transform="">
<rect width="100" height="100"/>
</g></g><g transform="translate(897 1242) scale(.69)"><g transform="">
<rect width="100" height="100"/>
</g></g><g transform="translate(966 1242) scale(.69)"><g transform="">
<rect width="100" height="100"/>
</g></g><g transform="translate(1035 1242) scale(.69)"><g transform="">
<rect width="100" height="100"/>
</g></g><g transform="translate(1449 1242) scale(.69)"><g transform="">
<rect width="100" height="100"/>
</g></g><g transform="translate(1587 1242) scale(.69)"><g transform="">
<rect width="100" height="100"/>
</g></g><g transform="translate(1656 1242) scale(.69)"><g transform="">
<rect width="100" height="100"/>
</g></g><g transform="translate(1794 1242) scale(.69)"><g transform="">
<rect width="100" height="100"/>
</g></g><g transform="translate(345 1311) scale(.69)"><g transform="">
<rect width="100" height="100"/>
</g></g><g transform="translate(552 1311) scale(.69)"><g transform="">
<rect width="100" height="100"/>
</g></g><g transform="translate(621 1311) scale(.69)"><g transform="">
<rect width="100" height="100"/>
</g></g><g transform="translate(690 1311) scale(.69)"><g transform="">
<rect width="100" height="100"/>
</g></g><g transform="translate(897 1311) scale(.69)"><g transform="">
<rect width="100" height="100"/>
</g></g><g transform="translate(966 1311) scale(.69)"><g transform="">
<rect width="100" height="100"/>
</g></g><g transform="translate(1035 1311) scale(.69)"><g transform="">
<rect width="100" height="100"/>
</g></g><g transform="translate(1173 1311) scale(.69)"><g transform="">
<rect width="100" height="100"/>
</g></g><g transform="translate(1311 1311) scale(.69)"><g transform="">
<rect width="100" height="100"/>
</g></g><g transform="translate(1518 1311) scale(.69)"><g transform="">
<rect width="100" height="100"/>
</g></g><g transform="translate(1794 1311) scale(.69)"><g transform="">
<rect width="100" height="100"/>
</g></g><g transform="translate(69 1380) scale(.69)"><g transform="">
<rect width="100" height="100"/>
</g></g><g transform="translate(138 1380) scale(.69)"><g transform="">
<rect width="100" height="100"/>
</g></g><g transform="translate(207 1380) scale(.69)"><g transform="">
<rect width="100" height="100"/>
</g></g><g transform="translate(276 1380) scale(.69)"><g transform="">
<rect width="100" height="100"/>
</g></g><g transform="translate(414 1380) scale(.69)"><g transform="">
<rect width="100" height="100"/>
</g></g><g transform="translate(552 1380) scale(.69)"><g transform="">
<rect width="100" height="100"/>
</g></g><g transform="translate(621 1380) scale(.69)"><g transform="">
<rect width="100" height="100"/>
</g></g><g transform="translate(690 1380) scale(.69)"><g transform="">
<rect width="100" height="100"/>
</g></g><g transform="translate(759 1380) scale(.69)"><g transform="">
<rect width="100" height="100"/>
</g></g><g transform="translate(828 1380) scale(.69)"><g transform="">
<rect width="100" height="100"/>
</g></g><g transform="translate(897 1380) scale(.69)"><g transform="">
<rect width="100" height="100"/>
</g></g><g transform="translate(966 1380) scale(.69)"><g transform="">
<rect width="100" height="100"/>
</g></g><g transform="translate(1173 1380) scale(.69)"><g transform="">
<rect width="100" height="100"/>
</g></g><g transform="translate(1242 1380) scale(.69)"><g transform="">
<rect width="100" height="100"/>
</g></g><g transform="translate(1380 1380) scale(.69)"><g transform="">
<rect width="100" height="100"/>
</g></g><g transform="translate(1449 1380) scale(.69)"><g transform="">
<rect width="100" height="100"/>
</g></g><g transform="translate(1518 1380) scale(.69)"><g transform="">
<rect width="100" height="100"/>
</g></g><g transform="translate(1587 1380) scale(.69)"><g transform="">
<rect width="100" height="100"/>
</g></g><g transform="translate(1656 1380) scale(.69)"><g transform="">
<rect width="100" height="100"/>
</g></g><g transform="translate(1725 1380) scale(.69)"><g transform="">
<rect width="100" height="100"/>
</g></g><g transform="translate(1794 1380) scale(.69)"><g transform="">
<rect width="100" height="100"/>
</g></g><g transform="translate(552 1449) scale(.69)"><g transform="">
<rect width="100" height="100"/>
</g></g><g transform="translate(690 1449) scale(.69)"><g transform="">
<rect width="100" height="100"/>
</g></g><g transform="translate(828 1449) scale(.69)"><g transform="">
<rect width="100" height="100"/>
</g></g><g transform="translate(1104 1449) scale(.69)"><g transform="">
<rect width="100" height="100"/>
</g></g><g transform="translate(1173 1449) scale(.69)"><g transform="">
<rect width="100" height="100"/>
</g></g><g transform="translate(1242 1449) scale(.69)"><g transform="">
<rect width="100" height="100"/>
</g></g><g transform="translate(1380 1449) scale(.69)"><g transform="">
<rect width="100" height="100"/>
</g></g><g transform="translate(1656 1449) scale(.69)"><g transform="">
<rect width="100" height="100"/>
</g></g><g transform="translate(1725 1449) scale(.69)"><g transform="">
<rect width="100" height="100"/>
</g></g><g transform="translate(1794 1449) scale(.69)"><g transform="">
<rect width="100" height="100"/>
</g></g><g transform="translate(1863 1449) scale(.69)"><g transform="">
<rect width="100" height="100"/>
</g></g><g transform="translate(1932 1449) scale(.69)"><g transform="">
<rect width="100" height="100"/>
</g></g><g transform="translate(552 1518) scale(.69)"><g transform="">
<rect width="100" height="100"/>
</g></g><g transform="translate(759 1518) scale(.69)"><g transform="">
<rect width="100" height="100"/>
</g></g><g transform="translate(828 1518) scale(.69)"><g transform="">
<rect width="100" height="100"/>
</g></g><g transform="translate(966 1518) scale(.69)"><g transform="">
<rect width="100" height="100"/>
</g></g><g transform="translate(1104 1518) scale(.69)"><g transform="">
<rect width="100" height="100"/>
</g></g><g transform="translate(1242 1518) scale(.69)"><g transform="">
<rect width="100" height="100"/>
</g></g><g transform="translate(1311 1518) scale(.69)"><g transform="">
<rect width="100" height="100"/>
</g></g><g transform="translate(1380 1518) scale(.69)"><g transform="">
<rect width="100" height="100"/>
</g></g><g transform="translate(1518 1518) scale(.69)"><g transform="">
<rect width="100" height="100"/>
</g></g><g transform="translate(1656 1518) scale(.69)"><g transform="">
<rect width="100" height="100"/>
</g></g><g transform="translate(1725 1518) scale(.69)"><g transform="">
<rect width="100" height="100"/>
</g></g><g transform="translate(1863 1518) scale(.69)"><g transform="">
<rect width="100" height="100"/>
</g></g><g transform="translate(552 1587) scale(.69)"><g transform="">
<rect width="100" height="100"/>
</g></g><g transform="translate(690 1587) scale(.69)"><g transform="">
<rect width="100" height="100"/>
</g></g><g transform="translate(828 1587) scale(.69)"><g transform="">
<rect width="100" height="100"/>
</g></g><g transform="translate(897 1587) scale(.69)"><g transform="">
<rect width="100" height="100"/>
</g></g><g transform="translate(966 1587) scale(.69)"><g transform="">
<rect width="100" height="100"/>
</g></g><g transform="translate(1035 1587) scale(.69)"><g transform="">
<rect width="100" height="100"/>
</g></g><g transform="translate(1104 1587) scale(.69)"><g transform="">
<rect width="100" height="100"/>
</g></g><g transform="translate(1242 1587) scale(.69)"><g transform="">
<rect width="100" height="100"/>
</g></g><g transform="translate(1311 1587) scale(.69)"><g transform="">
<rect width="100" height="100"/>
</g></g><g transform="translate(1380 1587) scale(.69)"><g transform="">
<rect width="100" height="100"/>
</g></g><g transform="translate(1656 1587) scale(.69)"><g transform="">
<rect width="100" height="100"/>
</g></g><g transform="translate(1725 1587) scale(.69)"><g transform="">
<rect width="100" height="100"/>
</g></g><g transform="translate(621 1656) scale(.69)"><g transform="">
<rect width="100" height="100"/>
</g></g><g transform="translate(759 1656) scale(.69)"><g transform="">
<rect width="100" height="100"/>
</g></g><g transform="translate(828 1656) scale(.69)"><g transform="">
<rect width="100" height="100"/>
</g></g><g transform="translate(1035 1656) scale(.69)"><g transform="">
<rect width="100" height="100"/>
</g></g><g transform="translate(1173 1656) scale(.69)"><g transform="">
<rect width="100" height="100"/>
</g></g><g transform="translate(1380 1656) scale(.69)"><g transform="">
<rect width="100" height="100"/>
</g></g><g transform="translate(1449 1656) scale(.69)"><g transform="">
<rect width="100" height="100"/>
</g></g><g transform="translate(1518 1656) scale(.69)"><g transform="">
<rect width="100" height="100"/>
</g></g><g transform="translate(1587 1656) scale(.69)"><g transform="">
<rect width="100" height="100"/>
</g></g><g transform="translate(1656 1656) scale(.69)"><g transform="">
<rect width="100" height="100"/>
</g></g><g transform="translate(1794 1656) scale(.69)"><g transform="">
<rect width="100" height="100"/>
</g></g><g transform="translate(1863 1656) scale(.69)"><g transform="">
<rect width="100" height="100"/>
</g></g><g transform="translate(552 1725) scale(.69)"><g transform="">
<rect width="100" height="100"/>
</g></g><g transform="translate(690 1725) scale(.69)"><g transform="">
<rect width="100" height="100"/>
</g></g><g transform="translate(897 1725) scale(.69)"><g transform="">
<rect width="100" height="100"/>
</g></g><g transform="translate(1035 1725) scale(.69)"><g transform="">
<rect width="100" height="100"/>
</g></g><g transform="translate(1173 1725) scale(.69)"><g transform="">
<rect width="100" height="100"/>
</g></g><g transform="translate(1311 1725) scale(.69)"><g transform="">
<rect width="100" height="100"/>
</g></g><g transform="translate(1380 1725) scale(.69)"><g transform="">
<rect width="100" height="100"/>
</g></g><g transform="translate(1449 1725) scale(.69)"><g transform="">
<rect width="100" height="100"/>
</g></g><g transform="translate(1587 1725) scale(.69)"><g transform="">
<rect width="100" height="100"/>
</g></g><g transform="translate(1656 1725) scale(.69)"><g transform="">
<rect width="100" height="100"/>
</g></g><g transform="translate(1725 1725) scale(.69)"><g transform="">
<rect width="100" height="100"/>
</g></g><g transform="translate(1932 1725) scale(.69)"><g transform="">
<rect width="100" height="100"/>
</g></g><g transform="translate(552 1794) scale(.69)"><g transform="">
<rect width="100" height="100"/>
</g></g><g transform="translate(621 1794) scale(.69)"><g transform="">
<rect width="100" height="100"/>
</g></g><g transform="translate(690 1794) scale(.69)"><g transform="">
<rect width="100" height="100"/>
</g></g><g transform="translate(1104 1794) scale(.69)"><g transform="">
<rect width="100" height="100"/>
</g></g><g transform="translate(1380 1794) scale(.69)"><g transform="">
<rect width="100" height="100"/>
</g></g><g transform="translate(1587 1794) scale(.69)"><g transform="">
<rect width="100" height="100"/>
</g></g><g transform="translate(1794 1794) scale(.69)"><g transform="">
<rect width="100" height="100"/>
</g></g><g transform="translate(1932 1794) scale(.69)"><g transform="">
<rect width="100" height="100"/>
</g></g><g transform="translate(759 1863) scale(.69)"><g transform="">
<rect width="100" height="100"/>
</g></g><g transform="translate(828 1863) scale(.69)"><g transform="">
<rect width="100" height="100"/>
</g></g><g transform="translate(897 1863) scale(.69)"><g transform="">
<rect width="100" height="100"/>
</g></g><g transform="translate(966 1863) scale(.69)"><g transform="">
<rect width="100" height="100"/>
</g></g><g transform="translate(1035 1863) scale(.69)"><g transform="">
<rect width="100" height="100"/>
</g></g><g transform="translate(1104 1863) scale(.69)"><g transform="">
<rect width="100" height="100"/>
</g></g><g transform="translate(1380 1863) scale(.69)"><g transform="">
<rect width="100" height="100"/>
</g></g><g transform="translate(1518 1863) scale(.69)"><g transform="">
<rect width="100" height="100"/>
</g></g><g transform="translate(1587 1863) scale(.69)"><g transform="">
<rect width="100" height="100"/>
</g></g><g transform="translate(1725 1863) scale(.69)"><g transform="">
<rect width="100" height="100"/>
</g></g><g transform="translate(1863 1863) scale(.69)"><g transform="">
<rect width="100" height="100"/>
</g></g><g transform="translate(552 1932) scale(.69)"><g transform="">
<rect width="100" height="100"/>
</g></g><g transform="translate(621 1932) scale(.69)"><g transform="">
<rect width="100" height="100"/>
</g></g><g transform="translate(690 1932) scale(.69)"><g transform="">
<rect width="100" height="100"/>
</g></g><g transform="translate(759 1932) scale(.69)"><g transform="">
<rect width="100" height="100"/>
</g></g><g transform="translate(828 1932) scale(.69)"><g transform="">
<rect width="100" height="100"/>
</g></g><g transform="translate(897 1932) scale(.69)"><g transform="">
<rect width="100" height="100"/>
</g></g><g transform="translate(1242 1932) scale(.69)"><g transform="">
<rect width="100" height="100"/>
</g></g><g transform="translate(1311 1932) scale(.69)"><g transform="">
<rect width="100" height="100"/>
</g></g><g transform="translate(1380 1932) scale(.69)"><g transform="">
<rect width="100" height="100"/>
</g></g><g transform="translate(1449 1932) scale(.69)"><g transform="">
<rect width="100" height="100"/>
</g></g><g transform="translate(1518 1932) scale(.69)"><g transform="">
<rect width="100" height="100"/>
</g></g><g transform="translate(1725 1932) scale(.69)"><g transform="">
<rect width="100" height="100"/>
</g></g><g transform="translate(1863 1932) scale(.69)"><g transform="">
<rect width="100" height="100"/>
</g></g><g transform="translate(0) scale(4.83)"><g transform="">
	<rect height="70" width="70" y="15" x="15" fill="none"/>
	<path d="m85 0h-85v100h100v-100h-15zm0 85h-70v-70h70v70z"/>
</g></g><g transform="translate(1518) scale(4.83)"><g transform="">
	<rect height="70" width="70" y="15" x="15" fill="none"/>
	<path d="m85 0h-85v100h100v-100h-15zm0 85h-70v-70h70v70z"/>
</g></g><g transform="translate(0 1518) scale(4.83)"><g transform="">
	<rect height="70" width="70" y="15" x="15" fill="none"/>
	<path d="m85 0h-85v100h100v-100h-15zm0 85h-70v-70h70v70z"/>
</g></g><g transform="translate(138 138) scale(2.07)"><g transform="">
<rect width="100" height="100"/>
</g></g><g transform="translate(1656 138) scale(2.07)"><g transform="">
<rect width="100" height="100"/>
</g></g><g transform="translate(138 1656) scale(2.07)"><g transform="">
<rect width="100" height="100"/>
</g></g></g></svg>
